<?xml version='1.0' encoding='utf-8'?>
<svg xmlns="http://www.w3.org/2000/svg" width="895" height="1758" viewBox="0 0 895 1758" version="1.1">
  <title>初始六组可见轮廓色块</title>
  <desc>Hand-drawn closed Bézier silhouettes in reference pixel coordinates. Six editable component groups. No embedded images. Crown and hair negative spaces preserved. Temporary garment is not a separate component.</desc>
  <g id="group-head" data-group-path="head" fill="#A78BFA" stroke="none">
    <desc>Parent completion: continuous rear hair beneath the neck, torso, pelvis and thighs; the central hanging lock joins this concealed rear mass. Original exposed contours, crown openings and outer hair-loop negative spaces are retained.</desc>
    <path id="head-hidden-back-continuation" data-completion="occluded-rear-hair" d="M 399 290 C 415 306 427 318 435 320 C 446 317 461 306 476 290 C 486 295 491 300 494 304 C 496 343 498 382 512 413 C 527 436 544 456 549 477 C 554 494 550 510 535 532 C 529 546 520 579 514 609 L 516 623 C 526 644 546 680 554 705 C 573 750 582 802 578 852 C 576 892 563 941 546 991 C 531 1039 516 1082 516 1123 C 515 1149 517 1172 519 1190 C 520 1222 525 1244 525 1278 C 519 1240 508 1217 489 1206 C 474 1198 459 1203 450 1223 C 448 1215 443 1222 440 1226 C 437 1222 434 1215 431 1208 C 418 1198 404 1198 390 1206 C 374 1217 362 1240 355 1264 C 356 1226 366 1195 367 1154 C 371 1122 368 1080 355 1041 C 337 981 316 921 307 873 C 302 820 309 761 331 704 C 334 677 356 641 367 621 L 368 608 C 361 578 351 548 344 533 C 329 514 323 495 327 477 C 332 454 350 434 363 413 C 378 382 380 346 382 304 C 385 298 391 292 399 290 Z" stroke="none" />
    <path id="head-hair-left" d="M 371 264 C 359 280 349 297 344 313 C 339 325 340 336 345 347 C 337 362 329 381 321 405 C 309 441 301 479 290 509 C 279 541 261 571 244 599 C 222 635 199 671 184 709 C 170 746 173 780 192 818 C 178 850 168 881 165 911 C 161 944 169 968 187 990 C 181 1023 169 1059 153 1087 C 132 1124 113 1156 107 1189 C 103 1214 105 1246 118 1260 C 123 1266 131 1271 140 1272 C 123 1268 116 1254 118 1234 C 119 1210 130 1186 144 1164 L 162 1137 C 159 1179 164 1223 179 1254 C 164 1285 147 1313 137 1343 C 126 1374 130 1407 146 1433 C 154 1446 164 1452 177 1455 C 159 1447 154 1432 159 1412 C 165 1381 188 1354 209 1328 C 201 1364 204 1400 212 1428 C 192 1457 170 1485 147 1487 C 176 1492 213 1469 239 1449 C 238 1477 244 1499 264 1510 C 250 1498 245 1483 248 1469 C 255 1476 264 1480 273 1480 C 261 1476 256 1467 255 1458 C 263 1420 281 1384 296 1348 C 305 1326 313 1300 319 1278 C 313 1322 315 1367 324 1393 C 331 1410 344 1421 360 1423 C 339 1414 335 1391 341 1360 C 350 1321 358 1297 358 1264 C 359 1226 369 1195 370 1154 C 374 1122 371 1080 358 1041 C 340 981 319 921 310 873 C 305 820 312 761 334 704 C 337 677 359 641 370 621 L 371 608 C 364 578 354 548 347 533 C 332 514 326 495 330 477 C 335 454 353 434 366 413 C 381 382 383 346 385 304 C 385 287 380 273 371 264 Z M 358 284 C 350 301 342 317 343 330 C 343 334 344 337 345 340 C 350 321 355 302 358 284 Z M 264 618 C 248 650 226 684 207 720 C 187 758 180 787 194 811 C 210 776 223 737 235 693 C 243 664 254 636 264 618 Z M 207 846 C 190 875 181 900 183 925 C 184 944 190 961 202 975 C 207 958 211 944 212 932 C 207 905 205 875 207 846 Z" stroke="none" fill-rule="evenodd" />
    <path id="head-hair-right" d="M 497 264 C 515 278 527 297 533 314 C 538 330 535 340 530 348 C 541 372 550 396 556 418 C 568 455 577 490 588 520 C 604 560 627 602 651 640 C 678 684 703 722 718 759 C 733 794 738 824 726 851 C 721 864 713 875 704 883 C 724 920 741 955 747 991 C 754 1035 746 1073 723 1109 C 747 1158 778 1199 804 1234 C 822 1258 834 1279 839 1313 C 831 1285 811 1271 785 1252 C 757 1232 736 1212 718 1188 C 720 1211 716 1234 705 1253 C 721 1290 743 1325 761 1359 C 778 1390 783 1421 771 1449 C 766 1464 755 1474 741 1480 C 757 1470 765 1453 757 1434 C 747 1410 726 1388 707 1364 C 699 1353 690 1338 683 1325 C 685 1352 682 1382 674 1405 C 678 1419 684 1433 690 1443 C 704 1469 718 1487 732 1492 C 704 1494 667 1465 641 1433 C 645 1470 637 1499 617 1511 C 632 1497 635 1480 632 1466 C 626 1475 619 1479 609 1481 C 620 1476 625 1468 628 1458 C 625 1431 615 1405 607 1377 C 593 1335 578 1299 564 1266 C 571 1312 568 1352 558 1383 C 551 1405 537 1418 519 1423 C 537 1412 545 1395 541 1374 C 537 1344 523 1310 522 1278 C 522 1244 517 1222 516 1190 C 514 1172 512 1149 513 1123 C 513 1082 528 1039 543 991 C 560 941 573 892 575 852 C 579 802 570 750 551 705 C 543 680 523 644 513 623 L 511 609 C 517 579 526 546 532 532 C 547 510 551 494 546 477 C 541 456 524 436 509 413 C 495 382 493 343 491 304 C 489 287 491 273 497 264 Z M 513 284 C 523 300 531 318 531 331 C 531 336 531 339 529 342 C 525 321 519 300 513 284 Z M 616 616 C 638 661 664 692 686 724 C 707 755 719 790 716 823 C 714 844 707 862 700 875 C 683 842 670 807 660 770 C 648 725 635 668 616 616 Z M 690 951 C 702 971 718 993 727 1018 C 738 1052 733 1081 720 1102 C 706 1073 697 1044 695 1017 C 691 992 690 969 690 951 Z" stroke="none" fill-rule="evenodd" />
    <path id="head-hair-central-gap" d="M 425 812 C 425 856 432 884 432 919 C 431 974 429 1033 437 1081 C 442 1122 432 1184 432 1218 C 432 1250 438 1284 441 1310 C 444 1289 451 1251 451 1217 C 451 1181 445 1120 445 1082 C 451 1034 448 976 450 930 C 451 885 452 850 457 813 Z" stroke="none" />
    <path id="head-hair-neck-left" d="M 371 262 C 362 281 354 309 347 333 L 327 381 L 357 379 C 380 375 402 367 411 353 L 414 308 C 397 295 385 278 371 262 Z M 358 284 C 350 301 342 317 343 330 C 343 334 344 337 345 340 C 350 321 355 302 358 284 Z" stroke="none" fill-rule="evenodd" />
    <path id="head-hair-neck-right" d="M 498 261 C 514 278 526 300 531 320 C 535 333 534 340 530 349 L 551 381 L 514 378 C 496 374 476 365 467 352 L 464 308 C 478 295 490 278 498 261 Z M 513 284 C 523 300 531 318 531 331 C 531 336 531 339 529 342 C 525 321 519 300 513 284 Z" stroke="none" fill-rule="evenodd" />
    <path id="head-front-lock-left" d="M 390 245 C 375 274 379 314 376 350 C 376 386 369 415 352 441 C 339 461 327 481 331 499 C 334 518 352 538 349 558 C 347 571 342 580 336 587 C 342 572 343 560 338 548 C 326 526 315 509 317 490 C 318 469 333 448 345 428 C 359 404 363 378 363 346 C 363 307 367 274 376 252 Z" stroke="none" />
    <path id="head-front-lock-right" d="M 480 246 C 497 276 492 314 496 351 C 497 385 503 416 521 442 C 535 462 550 482 547 499 C 545 517 528 538 531 557 C 534 573 538 580 546 589 C 535 584 529 574 527 561 C 525 543 538 521 541 505 C 546 483 532 465 519 447 C 501 422 491 396 488 366 C 484 328 487 282 475 255 Z" stroke="none" />
    <path id="head-ribbon-left" d="M 303.94 179.85 L 313 194 C 311 275 307 367 300 444 C 295 489 286 521 273 544 C 280 502 283 464 285 422 L 293 193 L 302.73 180.72 C 302.8 181.2 302.93 181.56 303.1 181.8 C 303.55 181.16 303.8 180.51 303.94 179.85 Z M 303.4 183.8 C 301.5 185.0 301.5 187.0 303.7 188.8 C 305.6 187.0 305.8 184.8 303.4 183.8 Z" stroke="none" fill-rule="evenodd" />
    <path id="head-ribbon-right" d="M 567.65 180.45 L 576 194 C 579 268 584 351 590 417 C 593 466 599 509 607 545 C 594 522 585 490 580 451 C 568 367 562 276 556 195 L 556.6 194 L 566.29 181.3 C 566.35 181.5 566.42 181.68 566.5 181.8 C 567.0 181.2 567.38 180.83 567.65 180.45 Z M 567.2 183.7 C 565.3 185.0 565.2 187.1 567.2 189.0 C 569.2 187.4 569.5 185.0 567.2 183.7 Z" stroke="none" fill-rule="evenodd" />
    <path id="head-chain-left" d="M 303.8 135.8 C 306.6 137.4 306.2 141.9 303.5 144.5 C 300.5 141.5 300.8 138.6 303.8 135.8 Z M 303.5 144.1 C 304.4 146.6 306.4 150.1 305.3 152.2 L 301.4 152.2 C 300.7 150.1 301.8 146.5 303.5 144.1 Z M 303.6 151.2 L 311.5 159.7 L 303.7 167.8 L 296.6 159.5 Z M 303.5 167.5 C 307.8 167.2 308.8 172.1 305.2 175.4 L 303.6 177 L 301.6 175.5 C 297.9 172.6 299.1 168.0 303.5 167.5 Z M 303.3 174.8 C 305.9 176.9 305.6 180.1 304.7 182.8 L 302.3 184.0 C 301.3 181.6 301.3 177.6 303.3 174.8 Z M 303.8 138.2 C 302.4 139.1 302.6 140.8 303.6 142.3 C 304.9 140.8 305.0 139.3 303.8 138.2 Z M 303.5 147.1 C 302.7 148.6 302.5 149.8 302.7 150.6 L 304.4 150.6 C 304.6 149.3 304.1 148.1 303.5 147.1 Z M 303.5 177.5 C 302.7 178.6 302.7 180.8 303.1 181.8 C 303.9 180.6 304.2 178.8 303.5 177.5 Z" stroke="none" />
    <path id="head-chain-right" d="M 567.2 135.6 C 570.0 137.4 570.1 141.2 567.3 144.0 C 564.1 141.8 564.1 138.0 567.2 135.6 Z M 567.2 143.7 C 568.3 146.3 570.0 149.5 569.1 152.1 L 565.0 152.1 C 564.0 149.6 565.9 146.2 567.2 143.7 Z M 567.1 151.2 L 575.0 159.8 L 567.1 167.8 L 559.8 160.0 Z M 567.1 167.3 C 571.7 167.7 572.3 171.8 569.0 175.3 L 567.2 177.2 L 565.0 175.4 C 561.5 172.4 562.6 168.0 567.1 167.3 Z M 567.0 174.8 C 569.5 177.0 569.4 180.6 568.0 183.0 L 565.9 183.5 C 564.6 180.7 565.1 177.0 567.0 174.8 Z M 567.2 138.1 C 565.8 139.3 566.0 140.9 567.3 142.0 C 568.7 140.9 568.7 139.3 567.2 138.1 Z M 567.1 147.0 C 566.3 148.1 566.0 149.6 566.2 150.6 L 568.0 150.6 C 568.3 149.3 567.9 147.9 567.1 147.0 Z M 567.1 177.5 C 566.2 179.0 566.1 180.5 566.5 181.8 C 567.8 180.2 567.8 179.0 567.1 177.5 Z" stroke="none" />
    <path id="head-bun" d="M 398 120 C 391 108 389 96 390 85 C 392 69 403 53 416 51 C 423 49 428 47 433 47 C 440 45 445 48 450 49 C 465 52 477 65 481 82 C 484 95 481 108 473 121 C 469 127 456 134 436 134 C 418 134 405 128 398 120 Z" stroke="none" />
    <path id="head-face-cap" d="M 435 120 C 416 120 401 121 389 127 C 377 131 367 142 361 153 C 354 167 350 182 348 196 C 346 208 347 219 346 228 C 342 238 345 250 348 258 C 352 269 361 279 370 282 L 378 276 C 382 287 386 294 394 302 C 406 312 423 321 435 323 C 446 320 462 309 473 300 C 481 293 487 284 491 275 L 499 279 C 510 271 517 261 521 248 C 525 235 525 224 522 212 C 522 197 519 180 514 167 C 509 151 501 138 488 130 C 474 122 456 121 435 120 Z" stroke="none" />
    <path id="head-crown-arch" d="M 367 64 C 383 34 406 18 435 18 C 465 17 490 33 507 64 L 503 66 C 489 38 465 23 436 22 C 409 22 386 37 371 67 Z" stroke="none" />
    <path id="head-crown-left" d="M 369 66 C 359 69 356 78 362 88 C 367 96 371 102 365 109 C 374 109 376 115 376 122 C 377 132 374 139 367 143 C 355 150 344 144 337 137 C 330 133 326 133 319 134 C 307 139 297 137 296 129 C 294 125 295 121 295 117 C 300 126 306 125 307 119 C 307 114 302 112 294 114 L 282 98 L 293 107 C 306 108 312 108 317 114 C 321 120 318 125 312 128 C 324 127 330 125 337 130 C 345 138 353 142 363 137 C 369 134 370 129 367 122 C 366 116 363 114 356 113 C 349 112 347 106 349 99 C 351 95 353 90 351 85 L 343 70 L 354 80 C 353 71 356 65 364 59 C 368 56 368 47 373 42 L 372 55 C 383 41 386 39 389 37 C 379 48 374 57 369 66 Z M 356 97 C 352 98 352 102 355 105 C 359 109 363 108 362 104 C 361 100 359 98 356 97 Z M 363 68 C 359 70 360 75 364 77 C 368 79 373 75 370 71 C 368 68 365 67 363 68 Z M 354.8 86.8 C 355.7 88.1 356.5 89.6 356.2 91.1 C 355.7 91.9 354.8 91.9 354.4 91.1 C 354.5 89.4 354.7 87.9 354.8 86.8 Z" stroke="none" fill-rule="evenodd" />
    <path id="head-crown-right" d="M 505.5 65.0 C 515.4 68.8 517.0 78.3 512.2 87.9 C 509.7 92.9 510.5 95.0 509.8 96.3 C 502.8 99.8 499.0 104.4 506.7 109.0 C 498 109 496 115 496 122 C 495 132 498 139 505 143 C 517 150 528 144 535 137 C 542 133 546 133 553 134 C 565 139 575 137 576 129 C 578 125 577 121 577 117 C 572 126 566 125 565 119 C 565 114 570 112 578 114 L 590 98 L 579 107 C 566 108 560 108 555 114 C 551 120 554 125 560 128 C 548 127 542 125 535 130 C 527 138 519 142 509 137 C 503 134 502 129 505 122 C 506 116 509 114 516 113 C 523.7 112 527.3 106.3 526.0 100.3 C 525.1 94.9 524.0 92.6 526.1 87.2 C 527.9 82.0 531.2 76.1 533.4 69.8 C 529.3 75.4 524.8 80.2 521.9 83.1 C 520.4 84.7 519.5 85.9 519.5 87.3 C 519.2 81.3 526.8 78.4 526.1 72.3 C 525.2 64.4 516.4 61.5 510.2 57.3 C 507.5 54.8 508.7 50.9 506.7 47.0 L 502.9 41.6 C 502.2 45.0 502.5 48.3 502.8 51.8 C 491.7 41.4 487.0 39.3 483 37 C 493 48 499.5 58.0 505.5 65.0 Z M 515.8 98.8 C 512.8 98.4 509.3 100.6 507.7 104 C 506.6 106.3 508.2 108.4 510.8 108.0 C 514.4 107.5 518.0 103.3 518.4 100.6 C 518.4 99.4 517.2 98.8 515.8 98.8 Z M 509 68 C 513 70 512 75 508 77 C 504 79 499 75 502 71 C 504 68 507 67 509 68 Z M 516.7 89.0 C 518.1 89.8 518.4 91.5 517.5 92.7 C 516.4 93.4 515.5 92.9 515.4 91.7 C 515.5 90.8 516.1 89.7 516.7 89.0 Z" stroke="none" fill-rule="evenodd" />
    <path id="head-crown-left-scroll" d="M 328 91 C 340 102 339 111 337 116 C 339 120 345 119 350 122 C 356 126 357 135 364 136 L 362 142 C 351 140 347 127 339 125 C 332 123 324 127 323 122 C 327 118 328 114 330 110 C 332 103 330 97 328 91 Z M 340 137 C 348 151 360 153 370 143 C 376 137 380 135 384 132 C 378 141 373 151 363 153 C 352 156 343 147 340 137 Z M 377 120 C 385 120 390 123 390 128 L 384 132 C 387 126 382 124 377 124 Z M 313.0 123.0 C 316.8 121.1 319.4 117.9 318.0 114.5 C 320.6 113.2 323.6 114.7 325.1 117.1 C 327 120.4 323.5 123.2 324.6 125.1 C 325.5 126.6 328.0 126.8 329.8 126.4 L 330.4 129.0 C 324.8 130.3 318.8 128.5 315.4 126.4 Z" stroke="none" />
    <path id="head-crown-right-scroll" d="M 544 91 C 532 102 533 111 535 116 C 533 120 527 119 522 122 C 516 126 515 135 508 136 L 510 142 C 521 140 525 127 533 125 C 540 123 548 127 549 122 C 545 118 544 114 542 110 C 540 103 542 97 544 91 Z M 532 137 C 524 151 512 153 502 143 C 496 137 492 135 488 132 C 494 141 499 151 509 153 C 520 156 529 147 532 137 Z M 495 120 C 487 120 482 123 482 128 L 488 132 C 485 126 490 124 495 124 Z M 553.4 114.3 C 549.5 115.3 545.7 116.8 544.1 119.5 C 542.1 122.4 546.7 124.4 545.3 126.0 C 543.8 127.4 541.7 126.8 539.4 126.5 L 539.0 129 C 544.8 130.0 550.0 128.0 554.5 125.7 L 557.1 124 C 552.6 122.3 549.1 119.3 553.4 114.3 Z" stroke="none" />
    <path id="head-crown-jewel" d="M 389.1 98.0 C 395 102 401 103.8 405.0 104.2 L 406.8 100.6 C 407.6 89.8 412.0 83 417.0 78.2 C 423.6 76.7 430 72.7 435 69.8 C 442.7 74.1 451.9 75.5 457.8 81.2 C 463.7 88.5 465.9 94.3 466 100.9 L 470.2 100.6 C 476.3 100 480 97.4 484.0 97.3 C 482.6 108.8 478.6 113.6 473.6 116.6 L 474.4 119.4 C 465.8 118.1 456.2 116.8 447.1 115.3 C 443.5 115.1 441.6 117.9 437.4 122.3 L 435.3 123.1 C 432.9 119.5 431.0 115.1 427.7 115.8 C 421.9 115.5 410 119.1 399.9 121.0 L 400.1 118.0 C 394.9 115.5 391.4 110.4 389.1 98.0 Z" stroke="none" />
  </g>
  <g id="group-head-rear-hair-left" data-group-path="head/rear_hair_left" fill="#5FA8D3" stroke="none" clip-path="url(#head-rear-left-ear-opening-clip)">
    <defs>
      <clipPath id="head-rear-left-ear-opening-clip" clipPathUnits="userSpaceOnUse">
        <path id="head-rear-left-ear-opening-geometry" d="M 0 0 H 895 V 1758 H 0 Z M 352.2 302.7 C 351.7 310 349.0 319.5 346.0 332.8 C 344.1 330.3 343.4 325.4 345.5 318.2 C 347.6 311.5 350.2 306.6 352.2 302.7 Z" clip-rule="evenodd" />
      </clipPath>
    </defs>
    <path id="head-rear-left-main" d="M 371 264 C 359 280 349 297 344 313 C 339 325 340 336 345 347 C 337 362 329 381 321 405 C 309 441 301 479 290 509 C 279 541 261 571 244 599 C 222 635 199 671 184 709 C 170 746 173 780 192 818 C 178 850 168 881 165 911 C 161 944 169 968 187 990 C 181 1023 169 1059 153 1087 C 132 1124 113 1156 107 1189 C 103 1214 105 1246 118 1260 C 123 1266 131 1271 140 1272 C 123 1268 116 1254 118 1234 C 119 1210 130 1186 144 1164 L 162 1137 C 159 1179 164 1223 179 1254 C 164 1285 147 1313 137 1343 C 126 1374 130 1407 146 1433 C 154 1446 164 1452 177 1455 C 159 1447 154 1432 159 1412 C 165 1381 188 1354 209 1328 C 201 1364 204 1400 212 1428 C 192 1457 170 1485 147 1487 C 176 1492 213 1469 239 1449 C 238 1477 244 1499 264 1510 C 250 1498 245 1483 248 1469 C 255 1476 264 1480 273 1480 C 261 1476 256 1467 255 1458 C 263 1420 281 1384 296 1348 C 305 1326 313 1300 319 1278 C 313 1322 315 1367 324 1393 C 331 1410 344 1421 360 1423 C 339 1414 335 1391 341 1360 C 350 1321 358 1297 358 1264 C 359 1226 369 1195 370 1154 C 374 1122 371 1080 358 1041 C 340 981 319 921 310 873 C 305 820 312 761 334 704 C 337 677 359 641 370 621 L 371 608 C 364 578 354 548 347 533 C 332 514 326 495 330 477 C 335 454 353 434 366 413 C 381 382 383 346 385 304 C 385 287 380 273 371 264 Z M 358 284 C 350 301 342 317 343 330 C 343 334 344 337 345 340 C 350 321 355 302 358 284 Z M 264 618 C 248 650 226 684 207 720 C 187 758 180 787 194 811 C 210 776 223 737 235 693 C 243 664 254 636 264 618 Z M 207 846 C 190 875 181 900 183 925 C 184 944 190 961 202 975 C 207 958 211 944 212 932 C 207 905 205 875 207 846 Z" stroke="none" fill-rule="evenodd" />
    <path id="head-rear-left-neck" d="M 371 262 C 362 281 354 309 347 333 L 327 381 L 357 379 C 380 375 402 367 411 353 L 414 308 C 397 295 385 278 371 262 Z M 358 284 C 350 301 342 317 343 330 C 343 334 344 337 345 340 C 350 321 355 302 358 284 Z" stroke="none" fill-rule="evenodd" />
    <path id="head-rear-left-central-tail" d="M 425 812 C 425 856 432 884 432 919 C 431 974 429 1033 437 1081 C 442 1122 432 1184 432 1218 C 432 1250 438 1284 441 1310 C 444 1289 451 1251 451 1217 C 451 1181 445 1120 445 1082 C 451 1034 448 976 450 930 C 451 885 452 850 457 813 Z" stroke="none" />
    <path id="head-rear-left-root" d="M 371 264 C 369 243 378 221 397 207 C 412 195 430 196 441 208 L 443 336 C 421 355 390 365 365 362 L 355 348 C 364 317 373 290 371 264 Z" stroke="none" />
    <path id="head-rear-left-hidden" d="M 399 290 C 414 297 430 302 443 305 L 443 1223 L 440 1226 C 437 1222 434 1215 431 1208 C 418 1197.7 404 1197.7 390 1205.7 C 374 1217 362 1240 355 1264 C 356 1226 366 1195 367 1154 C 371 1122 368 1080 355 1041 C 337 981 316 921 307 873 C 302 820 309 761 331 704 C 334 677 356 641 367 621 L 368 608 C 361 578 351 548 344 533 C 329 514 323 495 327 477 C 332 454 350 434 363 413 C 378 382 380 346 382 304 C 385 298 391 292 399 290 Z" stroke="none" />
  </g>
  <g id="group-head-rear-hair-right" data-group-path="head/rear_hair_right" fill="#B5A34A" stroke="none">
    <path id="head-rear-right-main" d="M 497 264 C 515 278 527 297 533 314 C 538 330 535 340 530 348 C 541 372 550 396 556 418 C 568 455 577 490 588 520 C 604 560 627 602 651 640 C 678 684 703 722 718 759 C 733 794 738 824 726 851 C 721 864 713 875 704 883 C 724 920 741 955 747 991 C 754 1035 746 1073 723 1109 C 747 1158 778 1199 804 1234 C 822 1258 834 1279 839 1313 C 831 1285 811 1271 785 1252 C 757 1232 736 1212 718 1188 C 720 1211 716 1234 705 1253 C 721 1290 743 1325 761 1359 C 778 1390 783 1421 771 1449 C 766 1464 755 1474 741 1480 C 757 1470 765 1453 757 1434 C 747 1410 726 1388 707 1364 C 699 1353 690 1338 683 1325 C 685 1352 682 1382 674 1405 C 678 1419 684 1433 690 1443 C 704 1469 718 1487 732 1492 C 704 1494 667 1465 641 1433 C 645 1470 637 1499 617 1511 C 632 1497 635 1480 632 1466 C 626 1475 619 1479 609 1481 C 620 1476 625 1468 628 1458 C 625 1431 615 1405 607 1377 C 593 1335 578 1299 564 1266 C 571 1312 568 1352 558 1383 C 551 1405 537 1418 519 1423 C 537 1412 545 1395 541 1374 C 537 1344 523 1310 522 1278 C 522 1244 517 1222 516 1190 C 514 1172 512 1149 513 1123 C 513 1082 528 1039 543 991 C 560 941 573 892 575 852 C 579 802 570 750 551 705 C 543 680 523 644 513 623 L 511 609 C 517 579 526 546 532 532 C 547 510 551 494 546 477 C 541 456 524 436 509 413 C 495 382 493 343 491 304 C 489 287 491 273 497 264 Z M 513 284 C 523 300 531 318 531 331 C 531 336 531 339 529 342 C 525 321 519 300 513 284 Z M 616 616 C 638 661 664 692 686 724 C 707 755 719 790 716 823 C 714 844 707 862 700 875 C 683 842 670 807 660 770 C 648 725 635 668 616 616 Z M 690 951 C 702 971 718 993 727 1018 C 738 1052 733 1081 720 1102 C 706 1073 697 1044 695 1017 C 691 992 690 969 690 951 Z" stroke="none" fill-rule="evenodd" />
    <path id="head-rear-right-neck" d="M 498 261 C 514 278 526 300 531 320 C 535 333 534 340 530 349 L 551 381 L 514 378 C 496 374 476 365 467 352 L 464 308 C 478 295 490 278 498 261 Z M 513 284 C 523 300 531 318 531 331 C 531 336 531 339 529 342 C 525 321 519 300 513 284 Z" stroke="none" fill-rule="evenodd" />
    <path id="head-rear-right-root" d="M 498 264 C 501 243 493 221 476 207 C 462 195 445 196 436 208 L 438 336 C 459 355 490 365 516 362 L 526 348 C 516 317 507 290 498 264 Z" stroke="none" />
    <path id="head-rear-right-hidden" d="M 438 305 C 449 303 463 296 476 290 C 486 295 491 300 494 304 C 496 343 498 382 512 413 C 527 436 544 456 549 477 C 554 494 550 510 535 532 C 529 546 520 579 514 609 L 516 623 C 526 644 546 680 554 705 C 573 750 582 802 578 852 C 576 892 563 941 546 991 C 531 1039 516 1082 516 1123 C 515 1149 517 1172 519 1190 C 520 1222 525 1244 525 1278 C 519 1240 508 1217 489 1206 C 474 1198 459 1203 450 1223 C 448 1215 443 1222 440 1226 L 438 1220 Z" stroke="none" />
  </g>
  <g id="part-head-topknot-bun" data-part-path="head/topknot_bun" fill="#C98F65" stroke="none">
    <path id="head-child-topknot-bun" d="M 398 120 C 391 108 389 96 390 85 C 392 69 403 53 416 51 C 423 49 428 47 433 47 C 440 45 445 48 450 49 C 465 52 477 65 481 82 C 484 95 481 108 473 121 C 469 127 456 134 436 134 C 418 134 405 128 398 120 Z" stroke="none" />
  </g>
  <g id="group-head-face" data-group-path="head/face" fill="#F5B7B1" stroke="none">
    <path id="head-face-skin" d="M 433 172 C 405 170 386 185 377 207 C 368 224 367 242 372 258 C 370 267 374 276 378 276 C 382 287 386 294 394 302 C 406 312 423 321 435 323 C 446 320 462 309 473 300 C 481 293 487 284 491 275 L 499 273 C 503 267 505 260 504 252 C 507 234 501 213 491 197 C 477 179 455 171 433 172 Z" stroke="none" />
    <path id="head-face-left-ear-completion" d="M 373.5 239 C 367.5 241 362 247 360 253 C 359 257 361.6 263 367.3 268 C 370.9 271.5 374.5 275 378 276 L 382 260 L 378 244 Z" stroke="none" />
  </g>
  <g id="group-head-front-hair" data-group-path="head/front_hair" fill="#9370DB" stroke="none">
    <path id="head-front-hair-cap" d="M 435 120 C 416 120 401 121 389 127 C 377 131 367 142 361 153 C 354 167 350 182 348 196 C 346 208 347 219 346 228 C 342 238 345 250 348 258 C 352 269 361 279 370 282 C 382 268 397 244 404 220 C 409 201 411 195 416 192 C 423 187 429 190 436 194 C 443 190 450 187 455 193 C 461 202 467 204 474 227 C 481 249 489 268 499 279 C 510 271 517 261 521 248 C 525 235 525 224 522 212 C 522 197 519 180 514 167 C 509 151 501 138 488 130 C 474 122 456 121 435 120 Z M 372.3 242.9 C 372.1 245.2 371.0 248.7 369.2 251.0 C 368.8 250.2 368.5 249.1 368.4 248.2 C 369.6 246.8 371.1 244.6 372.3 242.9 Z M 364.9 253.1 C 365.0 255.6 364.7 259.5 364.0 262.4 C 362.7 261.4 361.1 259.3 360.8 257.0 C 362.1 256.0 363.9 254.2 364.9 253.1 Z" stroke="none" fill-rule="evenodd" />
  </g>
  <g id="group-head-face-framing-hair-left" data-group-path="head/face_framing_hair_left" fill="#E8A340" stroke="none">
    <path id="head-framing-left-main" d="M 390 245 C 375 274 379 314 376 350 C 376 386 369 415 352 441 C 339 461 330.2 476 329.1 490 C 327.8 500 329.2 510 334.3 519.8 C 338.4 527.8 344.1 535.7 347.6 544.8 C 354.3 562.5 347.5 580 336 587 C 343.8 576 348.0 563 343.7 550 C 340.9 539.1 334.8 531.8 329.0 521.1 C 322.5 510.6 323.5 504.0 323.1 490.2 C 322.75 478 326.8 462 345 428 C 359 404 363 378 363 346 C 363 307 367 274 376 252 Z" stroke="none" />
    <path id="head-framing-left-loop" d="M 371 264 C 359 280 349 297 344 313 C 339 325 340 336 345 347 L 345 340 C 344 337 343 334 343 330 C 342 317 350 301 358 284 L 371 264 Z" stroke="none" />
    <path id="head-framing-left-chest-loop" d="M 328 468 C 320.7 478.7 317.6 486.3 317.6 493.4 C 317.4 502.2 323.0 508.6 327.8 513 L 327.8 514.4 C 320.1 507.6 315.3 502 316.6 489.9 C 317.8 483 321.2 476.3 328 468 Z" stroke="none" />
  </g>
  <g id="group-head-face-framing-hair-right" data-group-path="head/face_framing_hair_right" fill="#65BFA3" stroke="none">
    <path id="head-framing-right-main" d="M 487 245 C 501 267 506 293 512 321 C 515 344 513 369 519 397 C 524 421 539 445 545.6 466 C 552.3 478 554.8 493 552.7 507 C 549.7 524 539.6 538 534 553 C 530 566 536 581 546 589 C 535 583 530 573 530 559 C 529.5 542 538.5 527 544.7 515 C 553.3 498 545.8 474 530 453 C 510 431 501 409 498 385 C 495 361 495 335 494 311 C 494 286 489 264 483 254 Z" stroke="none" />
    <path id="head-framing-right-loop" d="M 497 264 C 515 278 527 297 533 314 C 538 330 535 340 530 348 L 529 342 C 531 339 531 336 531 331 C 531 318 523 300 513 284 L 497 264 Z" stroke="none" />
    <path id="head-framing-right-chest-loop" d="M 538.8 446.5 C 549.1 456.2 560.4 477 562.2 490 C 563.9 500 559.8 507.5 550.8 513.2 L 550.2 511.7 C 558.3 507.4 561.9 498 560.6 490 C 558.7 476.7 548.3 457.1 538.8 446.5 Z" stroke="none" />
  </g>
  <g id="group-head-crown" data-group-path="head/crown" fill="#5E86D5" stroke="none">
    <path id="head-child-crown-arch" d="M 367 64 C 383 34 406 18 435 18 C 465 17 490 33 507 64 L 503 66 C 489 38 465 23 436 22 C 409 22 386 37 371 67 Z" stroke="none" />
    <path id="head-child-crown-left" d="M 369 66 C 359 69 356 78 362 88 C 367 96 371 102 365 109 C 374 109 376 115 376 122 C 377 132 374 139 367 143 C 355 150 344 144 337 137 C 330 133 326 133 319 134 C 307 139 297 137 296 129 C 294 125 295 121 295 117 C 300 126 306 125 307 119 C 307 114 302 112 294 114 L 282 98 L 293 107 C 306 108 312 108 317 114 C 321 120 318 125 312 128 C 324 127 330 125 337 130 C 345 138 353 142 363 137 C 369 134 370 129 367 122 C 366 116 363 114 356 113 C 349 112 347 106 349 99 C 351 95 353 90 351 85 L 343 70 L 354 80 C 353 71 356 65 364 59 C 368 56 368 47 373 42 L 372 55 C 383 41 386 39 389 37 C 379 48 374 57 369 66 Z M 356 97 C 352 98 352 102 355 105 C 359 109 363 108 362 104 C 361 100 359 98 356 97 Z M 363 68 C 359 70 360 75 364 77 C 368 79 373 75 370 71 C 368 68 365 67 363 68 Z M 354.8 86.8 C 355.7 88.1 356.5 89.6 356.2 91.1 C 355.7 91.9 354.8 91.9 354.4 91.1 C 354.5 89.4 354.7 87.9 354.8 86.8 Z M 314.8 113.1 C 316.0 113.9 317.2 114.7 317.6 115.8 C 318.2 117.2 317.3 119.0 315.0 120.6 C 315.6 118.0 315.2 115.4 314.8 113.1 Z" stroke="none" fill-rule="evenodd" />
    <path id="head-child-crown-right" d="M 505.5 65.0 C 515.4 68.8 517.0 78.3 512.2 87.9 C 509.7 92.9 510.5 95.0 509.8 96.3 C 502.8 99.8 499.0 104.4 506.7 109.0 C 498 109 496 115 496 122 C 495 132 498 139 505 143 C 517 150 528 144 535 137 C 542 133 546 133 553 134 C 565 139 575 137 576 129 C 578 125 577 121 577 117 C 572 126 566 125 565 119 C 565 114 570 112 578 114 L 590 98 L 579 107 C 566 108 560 108 555 114 C 551 120 554 125 560 128 C 548 127 542 125 535 130 C 527 138 519 142 509 137 C 503 134 502 129 505 122 C 506 116 509 114 516 113 C 523.7 112 527.3 106.3 526.0 100.3 C 525.1 94.9 524.0 92.6 526.1 87.2 C 527.9 82.0 531.2 76.1 533.4 69.8 C 529.3 75.4 524.8 80.2 521.9 83.1 C 520.4 84.7 519.5 85.9 519.5 87.3 C 519.2 81.3 526.8 78.4 526.1 72.3 C 525.2 64.4 516.4 61.5 510.2 57.3 C 507.5 54.8 508.7 50.9 506.7 47.0 L 502.9 41.6 C 502.2 45.0 502.5 48.3 502.8 51.8 C 491.7 41.4 487.0 39.3 483 37 C 493 48 499.5 58.0 505.5 65.0 Z M 515.8 98.8 C 512.8 98.4 509.3 100.6 507.7 104 C 506.6 106.3 508.2 108.4 510.8 108.0 C 514.4 107.5 518.0 103.3 518.4 100.6 C 518.4 99.4 517.2 98.8 515.8 98.8 Z M 509 68 C 513 70 512 75 508 77 C 504 79 499 75 502 71 C 504 68 507 67 509 68 Z M 516.7 89.0 C 518.1 89.8 518.4 91.5 517.5 92.7 C 516.4 93.4 515.5 92.9 515.4 91.7 C 515.5 90.8 516.1 89.7 516.7 89.0 Z" stroke="none" fill-rule="evenodd" />
    <path id="head-child-crown-left-scroll" d="M 328 91 C 340 102 339 111 337 116 C 339 120 345 119 350 122 C 356 126 357 135 364 136 L 362 142 C 351 140 347 127 339 125 C 332 123 324 127 323 122 C 327 118 328 114 330 110 C 332 103 330 97 328 91 Z M 340 137 C 348 151 360 153 370 143 C 376 137 380 135 384 132 C 378 141 373 151 363 153 C 352 156 343 147 340 137 Z M 377 120 C 385 120 390 123 390 128 L 384 132 C 387 126 382 124 377 124 Z M 313.0 123.0 C 316.8 121.1 319.4 117.9 318.0 114.5 C 320.6 113.2 323.6 114.7 325.1 117.1 C 327 120.4 323.5 123.2 324.6 125.1 C 325.5 126.6 328.0 126.8 329.8 126.4 L 330.4 129.0 C 324.8 130.3 318.8 128.5 315.4 126.4 Z M 333.4 113.8 C 332.5 115 331.8 116.8 332.3 118.0 C 333.0 118.6 334.2 118.3 334.9 117.4 C 335.0 116.1 334.3 114.5 333.4 113.8 Z" stroke="none" />
    <path id="head-child-crown-right-scroll" d="M 544 91 C 532 102 533 111 535 116 C 533 120 527 119 522 122 C 516 126 515 135 508 136 L 510 142 C 521 140 525 127 533 125 C 540 123 548 127 549 122 C 545 118 544 114 542 110 C 540 103 542 97 544 91 Z M 532 137 C 524 151 512 153 502 143 C 496 137 492 135 488 132 C 494 141 499 151 509 153 C 520 156 529 147 532 137 Z M 495 120 C 487 120 482 123 482 128 L 488 132 C 485 126 490 124 495 124 Z M 553.4 114.3 C 549.5 115.3 545.7 116.8 544.1 119.5 C 542.1 122.4 546.7 124.4 545.3 126.0 C 543.8 127.4 541.7 126.8 539.4 126.5 L 539.0 129 C 544.8 130.0 550.0 128.0 554.5 125.7 L 557.1 124 C 552.6 122.3 549.1 119.3 553.4 114.3 Z M 539.0 113.8 C 540.1 115.3 540.5 117 539.8 118.1 C 538.9 118.7 537.8 118.2 537.3 117.3 C 537.5 115.8 538.2 114.6 539.0 113.8 Z" stroke="none" />
    <path id="head-child-crown-jewel" d="M 389.1 98.0 C 395 102 401 103.8 405.0 104.2 L 406.8 100.6 C 407.6 89.8 412.0 83 417.0 78.2 C 423.6 76.7 430 72.7 435 69.8 C 442.7 74.1 451.9 75.5 457.8 81.2 C 463.7 88.5 465.9 94.3 466 100.9 L 470.2 100.6 C 476.3 100 480 97.4 484.0 97.3 C 482.6 108.8 478.6 113.6 473.6 116.6 L 474.4 119.4 C 465.8 118.1 456.2 116.8 447.1 115.3 C 443.5 115.1 441.6 117.9 437.4 122.3 L 435.3 123.1 C 432.9 119.5 431.0 115.1 427.7 115.8 C 421.9 115.5 410 119.1 399.9 121.0 L 400.1 118.0 C 394.9 115.5 391.4 110.4 389.1 98.0 Z" stroke="none" />
    <path id="head-crown-mid-chain" d="M 435 116 L 438 116 L 438 128 L 436 132 L 434 128 Z M 435 139 L 437 139 L 437 150 L 435 150 Z M 435 165 L 437 165 L 438 176 L 435 177 Z M 435 201 L 438 201 L 438 206 L 435 206 Z" stroke="none" />
    <path id="head-crown-mid-gems" d="M 436 128 L 440 135 L 436 142 L 432 135 Z M 436 148 L 441 157 L 436 167 L 431 158 Z M 436 175 L 449 189 L 437 203 L 424 191 Z M 436 204 L 440 212 L 436 219 L 432 212 Z" stroke="none" />
  </g>
  <g id="group-head-hanging-ribbon-left" data-group-path="head/hanging_ribbon_left" fill="#DA75A8" stroke="none">
    <path id="head-child-ribbon-left" d="M 303.94 179.85 L 313 194 C 311 275 307 367 300 444 C 295 489 286 521 273 544 C 280 502 283 464 285 422 L 293 193 L 302.73 180.72 C 302.8 181.2 302.93 181.56 303.1 181.8 C 303.55 181.16 303.8 180.51 303.94 179.85 Z M 303.4 183.8 C 301.5 185.0 301.5 187.0 303.7 188.8 C 305.6 187.0 305.8 184.8 303.4 183.8 Z" stroke="none" fill-rule="evenodd" />
    <path id="head-child-chain-left" d="M 303.8 135.8 C 306.6 137.4 306.2 141.9 303.5 144.5 C 300.5 141.5 300.8 138.6 303.8 135.8 Z M 303.5 144.1 C 304.4 146.6 306.4 150.1 305.3 152.2 L 301.4 152.2 C 300.7 150.1 301.8 146.5 303.5 144.1 Z M 303.6 151.2 L 311.5 159.7 L 303.7 167.8 L 296.6 159.5 Z M 303.5 167.5 C 307.8 167.2 308.8 172.1 305.2 175.4 L 303.6 177 L 301.6 175.5 C 297.9 172.6 299.1 168.0 303.5 167.5 Z M 303.3 174.8 C 305.9 176.9 305.6 180.1 304.7 182.8 L 302.3 184.0 C 301.3 181.6 301.3 177.6 303.3 174.8 Z M 303.8 138.2 C 302.4 139.1 302.6 140.8 303.6 142.3 C 304.9 140.8 305.0 139.3 303.8 138.2 Z M 303.5 147.1 C 302.7 148.6 302.5 149.8 302.7 150.6 L 304.4 150.6 C 304.6 149.3 304.1 148.1 303.5 147.1 Z M 303.5 177.5 C 302.7 178.6 302.7 180.8 303.1 181.8 C 303.9 180.6 304.2 178.8 303.5 177.5 Z" stroke="none" />
  </g>
  <g id="group-head-hanging-ribbon-right" data-group-path="head/hanging_ribbon_right" fill="#72A974" stroke="none">
    <path id="head-child-ribbon-right" d="M 567.65 180.45 L 576 194 C 579 268 584 351 590 417 C 593 466 599 509 607 545 C 594 522 585 490 580 451 C 568 367 562 276 556 195 L 556.6 194 L 566.29 181.3 C 566.35 181.5 566.42 181.68 566.5 181.8 C 567.0 181.2 567.38 180.83 567.65 180.45 Z M 567.2 183.7 C 565.3 185.0 565.2 187.1 567.2 189.0 C 569.2 187.4 569.5 185.0 567.2 183.7 Z" stroke="none" fill-rule="evenodd" />
    <path id="head-child-chain-right" d="M 567.2 135.6 C 570.0 137.4 570.1 141.2 567.3 144.0 C 564.1 141.8 564.1 138.0 567.2 135.6 Z M 567.2 143.7 C 568.3 146.3 570.0 149.5 569.1 152.1 L 565.0 152.1 C 564.0 149.6 565.9 146.2 567.2 143.7 Z M 567.1 151.2 L 575.0 159.8 L 567.1 167.8 L 559.8 160.0 Z M 567.1 167.3 C 571.7 167.7 572.3 171.8 569.0 175.3 L 567.2 177.2 L 565.0 175.4 C 561.5 172.4 562.6 168.0 567.1 167.3 Z M 567.0 174.8 C 569.5 177.0 569.4 180.6 568.0 183.0 L 565.9 183.5 C 564.6 180.7 565.1 177.0 567.0 174.8 Z M 567.2 138.1 C 565.8 139.3 566.0 140.9 567.3 142.0 C 568.7 140.9 568.7 139.3 567.2 138.1 Z M 567.1 147.0 C 566.3 148.1 566.0 149.6 566.2 150.6 L 568.0 150.6 C 568.3 149.3 567.9 147.9 567.1 147.0 Z M 567.1 177.5 C 566.2 179.0 566.1 180.5 566.5 181.8 C 567.8 180.2 567.8 179.0 567.1 177.5 Z" stroke="none" />
  </g>
  <g id="part-head-earring-left" data-part-path="head/earring_left" fill="#D5656A" stroke="none">
    <path id="head-earring-left-chain" d="M 382.2 276 L 383.7 276 L 384.1 285 L 382.5 285 Z M 382.4 298 C 381.7 303 381.9 309 382.4 313 L 384 313 C 384.6 309 384.6 303 383.9 298 Z" stroke="none" />
    <path id="head-earring-left-jewel" d="M 383 284 L 386.5 292 L 383 299 L 379.8 292 Z" stroke="none" />
  </g>
  <g id="part-head-earring-right" data-part-path="head/earring_right" fill="#A563BC" stroke="none">
    <desc>Hidden upper stem extends into the earlobe to y269.4 for a stable pendant pivot and small relative shifts; the visible stem, jewel and lower chain stay unchanged.</desc>
    <path id="head-earring-right-chain" d="M 491.2 275 L 492.7 275 L 493.1 284 L 491.5 284 Z M 491.4 297 C 490.7 302 490.9 308 491.4 312 L 493 312 C 493.6 308 493.6 302 492.9 297 Z M 491.2 275 L 491.0 270 C 491.0 269.2 492.3 268.9 492.5 269.8 L 492.7 275 Z" stroke="none" />
    <path id="head-earring-right-jewel" d="M 492 283 L 495.5 291 L 492 298 L 488.8 291 Z" stroke="none" />
  </g>
  <g id="group-neck" data-group-path="neck" fill="#F6C85F" stroke="none">
    <path id="neck-silhouette" d="M 411 305 C 412 324 413 343 408 355 C 402 364 389 368 378 373 C 393 380 407 384 422 386 L 438 397 L 451 386 C 465 384 483 380 500 376 C 488 369 478 362 473 351 C 467 338 467 320 467 302 C 457 310 445 319 435 320 C 426 317 419 311 411 305 Z" stroke="none" />
  </g>
  <g id="group-body" data-group-path="body" fill="#6BCB97" stroke="none">
    <path id="body-silhouette" d="M 378 373 C 365 377 349 379 334 380 C 320 381 311 386 307 396 C 320 412 332 428 337 447 C 338 460 335 476 335 489 C 332 510 338 530 347 544 C 357 569 365 594 367 608 C 369 616 363 620 365 626 L 357 645 C 382 655 409 660 439 660 C 470 660 495 655 523 645 L 516 626 C 519 620 512 616 514 608 C 517 588 522 564 528 546 C 538 526 544 508 543 489 C 542 474 540 460 544 446 C 549 425 560 410 571 396 C 568 386 557 381 542 380 C 525 379 509 377 496 374 C 480 378 465 382 451 384 L 438 394 L 422 384 C 407 382 391 378 378 373 Z" stroke="none" />
  </g>
  <g id="group-arms" data-group-path="arms" fill="#F3A55B" stroke="none">
    <path id="arm-left" d="M 334 380 C 322 380 313 383 307 393 C 299 407 297 426 296 447 C 294 488 293 528 288 568 C 286 594 280 615 272 635 C 261 665 253 700 246 737 C 239 767 232 795 228 815 C 227 832 223 849 218 863 C 215 871 213 876 214 881 L 224 913 C 228 918 234 923 238 929 L 246 940 C 250 939 248 934 246 930 L 239 917 C 243 923 250 927 261 929 C 269 932 266 926 262 924 L 246 915 C 254 917 261 917 266 914 C 269 912 265 909 263 908 C 259 909 254 911 250 909 C 258 904 258 895 258 885 L 258 866 C 262 854 263 845 260 836 C 257 829 252 824 253 815 C 257 795 269 768 282 740 C 295 710 308 682 317 654 C 326 629 327 607 330 584 C 334 559 341 540 343 519 C 338 502 335 490 338 474 C 341 456 346 442 350 429 C 350 409 343 389 334 380 Z M 242 872 C 239 875 238 883 237 892 C 237 898 240 903 246 906 C 244 900 244 892 245 886 C 245 880 245 875 242 872 Z" stroke="none" fill-rule="evenodd" />
    <path id="arm-right" d="M 543 380 C 557 380 567 385 573 397 C 580 411 581 429 582 448 C 585 491 586 532 591 571 C 594 596 600 615 607 635 C 618 666 626 701 635 738 C 642 768 648 795 652 814 C 652 831 657 849 662 864 C 665 873 666 878 664 883 L 653 914 C 649 919 642 924 638 930 L 630 940 C 626 938 629 933 631 929 L 638 917 C 633 923 625 927 617 929 C 609 932 612 927 616 924 L 631 915 C 624 918 617 917 613 915 C 609 913 613 910 616 908 C 621 909 626 912 631 909 C 623 905 621 899 621 888 L 620 869 C 616 855 617 845 621 835 C 625 826 628 820 625 809 C 618 790 607 765 594 738 C 581 710 568 681 560 653 C 552 627 552 605 548 583 C 544 558 537 541 535 520 C 541 502 545 491 542 475 C 539 456 534 442 530 429 C 529 409 535 390 543 380 Z M 636 872 C 639 876 641 884 642 891 C 641 898 638 903 632 906 C 634 899 633 891 633 885 C 633 879 634 875 636 872 Z" stroke="none" fill-rule="evenodd" />
  </g>
  <g id="group-pelvis" data-group-path="pelvis" fill="#5CAFE0" stroke="none">
    <path id="pelvis-silhouette" d="M 357 643 C 349 661 335 685 329 705 C 329 713 339 718 352 725 C 371 740 390 763 405 786 C 415 800 423 816 430 822 C 434 825 438 820 442 822 C 448 825 452 821 457 814 C 470 792 484 771 502 752 C 518 734 536 717 553 707 C 548 683 534 661 523 643 C 497 652 469 657 440 657 C 410 657 383 653 357 643 Z" stroke="none" />
  </g>
  <g id="group-legs" data-group-path="legs" fill="#E987AA" stroke="none">
    <path id="leg-left" d="M 329 706 C 344 710 365 728 382 747 C 403 770 421 799 427 817 C 435 839 436 866 436 896 C 437 927 433 957 435 989 C 437 1026 435 1060 440 1088 C 443 1111 443 1135 441 1150 C 437 1168 433 1185 434 1204 C 438 1239 437 1274 435 1306 C 432 1348 425 1387 423 1426 C 420 1467 420 1507 423 1536 C 425 1553 431 1567 431 1574 C 431 1582 428 1584 430 1597 C 432 1623 435 1649 438 1669 C 441 1679 441 1687 438 1697 C 436 1703 430 1707 421 1707 C 417 1707 414 1706 412 1703 C 408 1707 404 1707 400 1705 C 398 1707 393 1706 390 1703 C 386 1705 382 1703 379 1700 C 376 1702 373 1700 371 1697 C 367 1690 364 1681 366 1675 C 372 1656 375 1640 378 1624 C 382 1607 385 1593 383 1583 C 380 1575 379 1570 381 1560 C 384 1545 384 1531 383 1515 C 382 1483 379 1448 374 1414 C 370 1381 363 1347 358 1316 C 352 1284 350 1251 353 1223 C 355 1193 365 1167 367 1144 C 370 1116 365 1086 358 1058 C 346 1014 333 975 320 931 C 309 894 302 860 303 826 C 302 786 312 741 329 706 Z" stroke="none" />
    <path id="leg-right" d="M 553 706 C 572 748 579 790 578 830 C 579 865 573 899 562 934 C 550 975 537 1016 525 1058 C 517 1087 512 1117 514 1144 C 516 1169 525 1195 528 1224 C 533 1253 531 1283 526 1314 C 522 1346 516 1382 511 1415 C 506 1449 502 1482 500 1513 C 498 1530 498 1545 500 1559 C 503 1569 503 1576 500 1584 C 497 1594 500 1608 502 1624 C 505 1642 509 1658 515 1675 C 518 1682 515 1691 512 1696 C 510 1700 507 1702 504 1700 C 501 1703 497 1705 493 1702 C 490 1706 486 1706 482 1703 C 479 1707 473 1707 468 1703 C 465 1707 461 1707 455 1706 C 447 1705 443 1701 443 1695 C 441 1685 442 1677 445 1668 C 448 1648 450 1623 452 1597 C 453 1584 450 1582 450 1574 C 450 1566 456 1552 458 1536 C 461 1507 461 1468 458 1428 C 456 1389 450 1349 448 1309 C 445 1273 445 1238 449 1204 C 450 1186 445 1169 442 1151 C 439 1135 439 1111 442 1088 C 446 1059 445 1026 447 989 C 449 957 446 927 446 896 C 446 866 447 839 455 817 C 462 799 480 770 501 747 C 518 728 539 710 553 706 Z" stroke="none" />
    <path id="leg-left-anklet-0" d="M 383 1602 C 386 1604 386 1610 383 1612 C 380 1610 380 1604 383 1602 Z" stroke="none" />
    <path id="leg-left-anklet-1" d="M 432 1613 C 435 1615 435 1621 432 1623 C 429 1621 429 1615 432 1613 Z" stroke="none" />
    <path id="leg-right-anklet-0" d="M 499 1603 C 502 1605 502 1611 499 1613 C 496 1611 496 1605 499 1603 Z" stroke="none" />
    <path id="leg-right-anklet-1" d="M 450 1613 C 453 1615 453 1621 450 1623 C 447 1621 447 1615 450 1613 Z" stroke="none" />
  </g>
</svg>