<?xml version='1.0' encoding='utf-8'?>
<svg xmlns="http://www.w3.org/2000/svg" width="895" height="1758" viewBox="0 0 895 1758" version="1.1">
  <defs />
  <g id="head_topknot_bun" data-part-path="head/topknot_bun">
    <desc>Complete editable topknot_bun including motion exposure margin from the approved guide; all resources are local to this part.</desc>
    <defs id="head_topknot_bun_defs">
      <clipPath id="head_topknot_bun_clip" clipPathUnits="userSpaceOnUse">
        <path id="head_topknot_bun_clip_shape_0" d="M 398 120 C 391 108 389 96 390 85 C 392 69 403 53 416 51 C 423 49 428 47 433 47 C 440 45 445 48 450 49 C 465 52 477 65 481 82 C 484 95 481 108 473 121 C 469 127 456 134 436 134 C 418 134 405 128 398 120 Z" />
      </clipPath>
    </defs>
    <g id="head_topknot_bun_paint" clip-path="url(#head_topknot_bun_clip)">
      <path id="head_topknot_bun_surface_0" d="M 398 120 C 391 108 389 96 390 85 C 392 69 403 53 416 51 C 423 49 428 47 433 47 C 440 45 445 48 450 49 C 465 52 477 65 481 82 C 484 95 481 108 473 121 C 469 127 456 134 436 134 C 418 134 405 128 398 120 Z" fill="#f3f3f7" stroke="none">
        <desc>Closed complete surface; visible edge matches approved guide. Bun y134 and right stem y269.4 retain future motion exposure. No cutout is introduced.</desc>
      </path>
    </g>
    <g id="head_topknot_bun_source_curves" clip-path="url(#head_topknot_bun_clip)">
      <path id="head_topknot_bun_contour_0" d="M 398 120 C 391 108 389 96 390 85 C 392 69 403 53 416 51 C 423 49 428 47 433 47 C 440 45 445 48 450 49 C 465 52 477 65 481 82 C 484 95 481 108 473 121 C 469 127 456 134 436 134 C 418 134 405 128 398 120 Z" fill="none" stroke="#9295B1" stroke-width="0.65" stroke-linecap="round" stroke-linejoin="round" data-line-role="contour" data-brush-size="1.1700000000000002" data-pressure="0.4,0.65,0.4">
        <desc>head/topknot_bun; contour; Complete boundary and occlusion continuation; bun lower edge hides behind crown/front hair, earring top stem anchors inside ear. Visible edge firm, hidden perimeter unobtrusive. Pressure start/middle/end (0.4, 0.65, 0.4); thin rounded taper, crisp center and soft optical endpoints. Clipped to the complete part surface; open lines are visible accents, closed contours delimit continuous fill.</desc>
      </path>
      <path id="head_topknot_bun_lock_left_outer" d="M 400 64 C 394 77 395 94 403 108 C 410 120 422 129 434 133" fill="none" stroke="#9295B1" stroke-width="0.4" stroke-linecap="round" stroke-linejoin="round" data-line-role="structure" data-brush-size="0.7200000000000001" data-pressure="0.12,0.68,0.16">
        <desc>head/topknot_bun; structure; Silver lock valley sweeps from scalp-facing outer arc into the lower bun root. Crown covers middle/lower run; retain full continuation for slight motion. Visible upper valley medium, gathering root fades. Pressure start/middle/end (0.12, 0.68, 0.16); thin rounded taper, crisp center and soft optical endpoints. Clipped to the complete part surface; open lines are visible accents, closed contours delimit continuous fill.</desc>
      </path>
      <path id="head_topknot_bun_lock_left_middle" d="M 411 54 C 407 68 412 85 420 102 C 425 116 431 126 436 133" fill="none" stroke="#9295B1" stroke-width="0.5" stroke-linecap="round" stroke-linejoin="round" data-line-role="structure" data-brush-size="0.9" data-pressure="0.12,0.68,0.16">
        <desc>head/topknot_bun; structure; Silver lock valley sweeps from scalp-facing outer arc into the lower bun root. Crown covers middle/lower run; retain full continuation for slight motion. Visible upper valley medium, gathering root fades. Pressure start/middle/end (0.12, 0.68, 0.16); thin rounded taper, crisp center and soft optical endpoints. Clipped to the complete part surface; open lines are visible accents, closed contours delimit continuous fill.</desc>
      </path>
      <path id="head_topknot_bun_lock_left_inner" d="M 424 49 C 423 64 428 80 432 95 C 435 110 436 120 437 132" fill="none" stroke="#9295B1" stroke-width="0.42" stroke-linecap="round" stroke-linejoin="round" data-line-role="structure" data-brush-size="0.756" data-pressure="0.12,0.68,0.16">
        <desc>head/topknot_bun; structure; Silver lock valley sweeps from scalp-facing outer arc into the lower bun root. Crown covers middle/lower run; retain full continuation for slight motion. Visible upper valley medium, gathering root fades. Pressure start/middle/end (0.12, 0.68, 0.16); thin rounded taper, crisp center and soft optical endpoints. Clipped to the complete part surface; open lines are visible accents, closed contours delimit continuous fill.</desc>
      </path>
      <path id="head_topknot_bun_lock_center" d="M 439 47 C 445 56 439 73 435 87 C 431 102 433 117 437 132" fill="none" stroke="#9295B1" stroke-width="0.45" stroke-linecap="round" stroke-linejoin="round" data-line-role="structure" data-brush-size="0.81" data-pressure="0.12,0.68,0.16">
        <desc>head/topknot_bun; structure; Silver lock valley sweeps from scalp-facing outer arc into the lower bun root. Crown covers middle/lower run; retain full continuation for slight motion. Visible upper valley medium, gathering root fades. Pressure start/middle/end (0.12, 0.68, 0.16); thin rounded taper, crisp center and soft optical endpoints. Clipped to the complete part surface; open lines are visible accents, closed contours delimit continuous fill.</desc>
      </path>
      <path id="head_topknot_bun_lock_right_inner" d="M 448 50 C 451 62 442 80 439 97 C 436 111 437 123 439 132" fill="none" stroke="#9295B1" stroke-width="0.38" stroke-linecap="round" stroke-linejoin="round" data-line-role="structure" data-brush-size="0.684" data-pressure="0.12,0.68,0.16">
        <desc>head/topknot_bun; structure; Silver lock valley sweeps from scalp-facing outer arc into the lower bun root. Crown covers middle/lower run; retain full continuation for slight motion. Visible upper valley medium, gathering root fades. Pressure start/middle/end (0.12, 0.68, 0.16); thin rounded taper, crisp center and soft optical endpoints. Clipped to the complete part surface; open lines are visible accents, closed contours delimit continuous fill.</desc>
      </path>
      <path id="head_topknot_bun_lock_right_middle" d="M 460 57 C 462 71 450 89 446 105 C 443 117 441 126 440 132" fill="none" stroke="#9295B1" stroke-width="0.45" stroke-linecap="round" stroke-linejoin="round" data-line-role="structure" data-brush-size="0.81" data-pressure="0.12,0.68,0.16">
        <desc>head/topknot_bun; structure; Silver lock valley sweeps from scalp-facing outer arc into the lower bun root. Crown covers middle/lower run; retain full continuation for slight motion. Visible upper valley medium, gathering root fades. Pressure start/middle/end (0.12, 0.68, 0.16); thin rounded taper, crisp center and soft optical endpoints. Clipped to the complete part surface; open lines are visible accents, closed contours delimit continuous fill.</desc>
      </path>
      <path id="head_topknot_bun_lock_right_outer" d="M 471 69 C 475 83 468 100 455 116 C 450 124 445 130 441 133" fill="none" stroke="#9295B1" stroke-width="0.45" stroke-linecap="round" stroke-linejoin="round" data-line-role="structure" data-brush-size="0.81" data-pressure="0.12,0.68,0.16">
        <desc>head/topknot_bun; structure; Silver lock valley sweeps from scalp-facing outer arc into the lower bun root. Crown covers middle/lower run; retain full continuation for slight motion. Visible upper valley medium, gathering root fades. Pressure start/middle/end (0.12, 0.68, 0.16); thin rounded taper, crisp center and soft optical endpoints. Clipped to the complete part surface; open lines are visible accents, closed contours delimit continuous fill.</desc>
      </path>
      <path id="head_topknot_bun_tone_left_turn" d="M 402 61 C 390 76 389 96 397 111 C 403 123 418 131 436 134 C 418 125 407 108 404 92 C 399 76 400 67 402 61 Z" fill="none" stroke="#91A5BE" stroke-width="0.24" stroke-linecap="round" stroke-linejoin="round" data-line-role="tone_helper" data-brush-size="0.432" data-pressure="0.1,0.25,0.1">
        <desc>head/topknot_bun; tone_helper; Left cool turning plane inside silhouette; upper edge soft 3px, lower gathering deepens. Color takes over boundary; no visible outline. Pressure start/middle/end (0.1, 0.25, 0.1); thin rounded taper, crisp center and soft optical endpoints. Clipped to the complete part surface; open lines are visible accents, closed contours delimit continuous fill.</desc>
      </path>
      <path id="head_topknot_bun_tone_right_turn" d="M 473 71 C 484 87 483 105 473 121 C 464 130 451 134 437 134 C 455 122 467 103 471 89 C 473 82 473 76 473 71 Z" fill="none" stroke="#91A5BE" stroke-width="0.24" stroke-linecap="round" stroke-linejoin="round" data-line-role="tone_helper" data-brush-size="0.432" data-pressure="0.1,0.25,0.1">
        <desc>head/topknot_bun; tone_helper; Right turning plane, shadow strongest against outer lower edge; soft 2px inward transition. Surface shading follows bun, not a cast shadow. Pressure start/middle/end (0.1, 0.25, 0.1); thin rounded taper, crisp center and soft optical endpoints. Clipped to the complete part surface; open lines are visible accents, closed contours delimit continuous fill.</desc>
      </path>
      <path id="head_topknot_bun_tone_highlight" d="M 407 60 C 413 53 421 51 428 50 C 424 61 426 75 430 88 C 420 88 412 83 407 73 C 405 68 405 64 407 60 Z" fill="none" stroke="#91A5BE" stroke-width="0.24" stroke-linecap="round" stroke-linejoin="round" data-line-role="tone_helper" data-brush-size="0.432" data-pressure="0.1,0.25,0.1">
        <desc>head/topknot_bun; tone_helper; Broad pale hair light on upper-left crest; soft 4px transitions across lock direction. Auxiliary region only, color takes over. Pressure start/middle/end (0.1, 0.25, 0.1); thin rounded taper, crisp center and soft optical endpoints. Clipped to the complete part surface; open lines are visible accents, closed contours delimit continuous fill.</desc>
      </path>
      <path id="head_topknot_bun_tone_root" d="M 399 112 C 415 116 459 116 477 111 C 472 128 455 134 436 134 C 418 134 405 128 399 112 Z" fill="none" stroke="#91A5BE" stroke-width="0.24" stroke-linecap="round" stroke-linejoin="round" data-line-role="tone_helper" data-brush-size="0.432" data-pressure="0.1,0.25,0.1">
        <desc>head/topknot_bun; tone_helper; Bun root gathering turns inward under crown; current face partly hidden, carry volume into motion exposure. Not a fabricated external shadow. Pressure start/middle/end (0.1, 0.25, 0.1); thin rounded taper, crisp center and soft optical endpoints. Clipped to the complete part surface; open lines are visible accents, closed contours delimit continuous fill.</desc>
      </path>
    </g>
  </g>
  <g id="head_earring_left" data-part-path="head/earring_left">
    <desc>Complete editable earring_left including motion exposure margin from the approved guide; all resources are local to this part.</desc>
    <defs id="head_earring_left_defs">
      <clipPath id="head_earring_left_clip" clipPathUnits="userSpaceOnUse">
        <path id="head_earring_left_clip_shape_0" d="M 382.2 276 L 383.7 276 L 384.1 285 L 382.5 285 Z M 382.4 298 C 381.7 303 381.9 309 382.4 313 L 384 313 C 384.6 309 384.6 303 383.9 298 Z" />
        <path id="head_earring_left_clip_shape_1" d="M 383 284 L 386.5 292 L 383 299 L 379.8 292 Z" />
      </clipPath>
    </defs>
    <g id="head_earring_left_paint" clip-path="url(#head_earring_left_clip)">
      <path id="head_earring_left_surface_0" d="M 382.2 276 L 383.7 276 L 384.1 285 L 382.5 285 Z M 382.4 298 C 381.7 303 381.9 309 382.4 313 L 384 313 C 384.6 309 384.6 303 383.9 298 Z" fill="#f3f3f7" stroke="none">
        <desc>Closed complete surface; visible edge matches approved guide. Bun y134 and right stem y269.4 retain future motion exposure. No cutout is introduced.</desc>
      </path>
      <path id="head_earring_left_surface_1" d="M 383 284 L 386.5 292 L 383 299 L 379.8 292 Z" fill="#f3f3f7" stroke="none">
        <desc>Closed complete surface; visible edge matches approved guide. Bun y134 and right stem y269.4 retain future motion exposure. No cutout is introduced.</desc>
      </path>
    </g>
    <g id="head_earring_left_source_curves" clip-path="url(#head_earring_left_clip)">
      <path id="head_earring_left_contour_0" d="M 382.2 276 L 383.7 276 L 384.02 283.2 M 382.44 283.2 L 382.2 276 M 382.27 299.2 C 381.7 304 381.9 309 382.4 313 L 384 313 C 384.6 309 384.6 304 384.03 299.2" fill="none" stroke="#9295B1" stroke-width="0.35" stroke-linecap="round" stroke-linejoin="round" data-line-role="contour" data-brush-size="0.63" data-pressure="0.4,0.65,0.4">
        <desc>head/earring_left; contour; Complete boundary and occlusion continuation; bun lower edge hides behind crown/front hair, earring top stem anchors inside ear. Visible edge firm, hidden perimeter unobtrusive. Pressure start/middle/end (0.4, 0.65, 0.4); thin rounded taper, crisp center and soft optical endpoints. Clipped to the complete part surface; open lines are visible accents, closed contours delimit continuous fill.</desc>
      </path>
      <path id="head_earring_left_contour_1" d="M 383 284 L 386.5 292 L 383 299 L 379.8 292 Z" fill="none" stroke="#9295B1" stroke-width="0.35" stroke-linecap="round" stroke-linejoin="round" data-line-role="contour" data-brush-size="0.63" data-pressure="0.4,0.65,0.4">
        <desc>head/earring_left; contour; Complete boundary and occlusion continuation; bun lower edge hides behind crown/front hair, earring top stem anchors inside ear. Visible edge firm, hidden perimeter unobtrusive. Pressure start/middle/end (0.4, 0.65, 0.4); thin rounded taper, crisp center and soft optical endpoints. Clipped to the complete part surface; open lines are visible accents, closed contours delimit continuous fill.</desc>
      </path>
      <path id="head_earring_left_facet_ridge" d="M 383 284.4 L 382.6 292 L 383 298.6" fill="none" stroke="#829AAF" stroke-width="0.22" stroke-linecap="round" stroke-linejoin="round" data-line-role="structure" data-brush-size="0.396" data-pressure="0.12,0.68,0.16">
        <desc>head/earring_left; structure; Crystal central ridge from top point to bottom point, light thin line; junction y+8 is soft and will merge into facet color. Pressure start/middle/end (0.12, 0.68, 0.16); thin rounded taper, crisp center and soft optical endpoints. Clipped to the complete part surface; open lines are visible accents, closed contours delimit continuous fill. Left upper face lighter cyan, right outer face deeper blue, lower tip medium blue; no separate cast shadow is evidenced.</desc>
      </path>
      <path id="head_earring_left_facet_cross" d="M 380.1 292 L 382.6 292 L 386.2 292" fill="none" stroke="#9DACBF" stroke-width="0.16" stroke-linecap="round" stroke-linejoin="round" data-line-role="structure" data-brush-size="0.28800000000000003" data-pressure="0.03,0.4,0.03">
        <desc>head/earring_left; structure; Subtle left and right crystal plane junction; no metal seam, taper to silhouette. Pressure start/middle/end (0.03, 0.4, 0.03); thin rounded taper, crisp center and soft optical endpoints. Clipped to the complete part surface; open lines are visible accents, closed contours delimit continuous fill.</desc>
      </path>
      <path id="head_earring_left_tone_crystal_light" d="M 382.7 285.2 L 380.9 291.2 L 382.45 294 L 383.35 290.8 Z" fill="none" stroke="#98B8C6" stroke-width="0.16" stroke-linecap="round" stroke-linejoin="round" data-line-role="tone_helper" data-brush-size="0.28800000000000003" data-pressure="0.12,0.68,0.16">
        <desc>head/earring_left; tone_helper; Bright cool left crystal facet; crisp planar outline but soft internal white light. Final color and reflection replace this guide line. Pressure start/middle/end (0.12, 0.68, 0.16); thin rounded taper, crisp center and soft optical endpoints. Clipped to the complete part surface; open lines are visible accents, closed contours delimit continuous fill.</desc>
      </path>
    </g>
  </g>
  <g id="head_earring_right" data-part-path="head/earring_right">
    <desc>Complete editable earring_right including motion exposure margin from the approved guide; all resources are local to this part.</desc>
    <defs id="head_earring_right_defs">
      <clipPath id="head_earring_right_clip" clipPathUnits="userSpaceOnUse">
        <path id="head_earring_right_clip_shape_0" d="M 491.2 275 L 492.7 275 L 493.1 284 L 491.5 284 Z M 491.4 297 C 490.7 302 490.9 308 491.4 312 L 493 312 C 493.6 308 493.6 302 492.9 297 Z M 491.2 275 L 491.0 270 C 491.0 269.2 492.3 268.9 492.5 269.8 L 492.7 275 Z" />
        <path id="head_earring_right_clip_shape_1" d="M 492 283 L 495.5 291 L 492 298 L 488.8 291 Z" />
      </clipPath>
    </defs>
    <g id="head_earring_right_paint" clip-path="url(#head_earring_right_clip)">
      <path id="head_earring_right_surface_0" d="M 491.2 275 L 492.7 275 L 493.1 284 L 491.5 284 Z M 491.4 297 C 490.7 302 490.9 308 491.4 312 L 493 312 C 493.6 308 493.6 302 492.9 297 Z M 491.2 275 L 491.0 270 C 491.0 269.2 492.3 268.9 492.5 269.8 L 492.7 275 Z" fill="#f3f3f7" stroke="none">
        <desc>Closed complete surface; visible edge matches approved guide. Bun y134 and right stem y269.4 retain future motion exposure. No cutout is introduced.</desc>
      </path>
      <path id="head_earring_right_surface_1" d="M 492 283 L 495.5 291 L 492 298 L 488.8 291 Z" fill="#f3f3f7" stroke="none">
        <desc>Closed complete surface; visible edge matches approved guide. Bun y134 and right stem y269.4 retain future motion exposure. No cutout is introduced.</desc>
      </path>
    </g>
    <g id="head_earring_right_source_curves" clip-path="url(#head_earring_right_clip)">
      <path id="head_earring_right_contour_0" d="M 491.46 282.2 L 491.0 270 C 491.0 269.2 492.3 268.9 492.5 269.8 L 493.02 282.2 M 491.27 298.2 C 490.7 303 490.9 308 491.4 312 L 493 312 C 493.6 308 493.6 303 493.03 298.2" fill="none" stroke="#9295B1" stroke-width="0.35" stroke-linecap="round" stroke-linejoin="round" data-line-role="contour" data-brush-size="0.63" data-pressure="0.4,0.65,0.4">
        <desc>head/earring_right; contour; Complete boundary and occlusion continuation; bun lower edge hides behind crown/front hair, earring top stem anchors inside ear. Visible edge firm, hidden perimeter unobtrusive. Pressure start/middle/end (0.4, 0.65, 0.4); thin rounded taper, crisp center and soft optical endpoints. Clipped to the complete part surface; open lines are visible accents, closed contours delimit continuous fill.</desc>
      </path>
      <path id="head_earring_right_contour_1" d="M 492 283 L 495.5 291 L 492 298 L 488.8 291 Z" fill="none" stroke="#9295B1" stroke-width="0.35" stroke-linecap="round" stroke-linejoin="round" data-line-role="contour" data-brush-size="0.63" data-pressure="0.4,0.65,0.4">
        <desc>head/earring_right; contour; Complete boundary and occlusion continuation; bun lower edge hides behind crown/front hair, earring top stem anchors inside ear. Visible edge firm, hidden perimeter unobtrusive. Pressure start/middle/end (0.4, 0.65, 0.4); thin rounded taper, crisp center and soft optical endpoints. Clipped to the complete part surface; open lines are visible accents, closed contours delimit continuous fill.</desc>
      </path>
      <path id="head_earring_right_facet_ridge" d="M 492 283.4 L 491.6 291 L 492 297.6" fill="none" stroke="#829AAF" stroke-width="0.22" stroke-linecap="round" stroke-linejoin="round" data-line-role="structure" data-brush-size="0.396" data-pressure="0.12,0.68,0.16">
        <desc>head/earring_right; structure; Crystal central ridge from top point to bottom point, light thin line; junction y+8 is soft and will merge into facet color. Pressure start/middle/end (0.12, 0.68, 0.16); thin rounded taper, crisp center and soft optical endpoints. Clipped to the complete part surface; open lines are visible accents, closed contours delimit continuous fill. Left upper face lighter cyan, right outer face deeper blue, lower tip medium blue; no separate cast shadow is evidenced.</desc>
      </path>
      <path id="head_earring_right_facet_cross" d="M 489.1 291 L 491.6 291 L 495.2 291" fill="none" stroke="#9DACBF" stroke-width="0.16" stroke-linecap="round" stroke-linejoin="round" data-line-role="structure" data-brush-size="0.28800000000000003" data-pressure="0.03,0.4,0.03">
        <desc>head/earring_right; structure; Subtle left and right crystal plane junction; no metal seam, taper to silhouette. Pressure start/middle/end (0.03, 0.4, 0.03); thin rounded taper, crisp center and soft optical endpoints. Clipped to the complete part surface; open lines are visible accents, closed contours delimit continuous fill.</desc>
      </path>
      <path id="head_earring_right_tone_crystal_light" d="M 491.7 284.2 L 489.9 290.2 L 491.45 293 L 492.35 289.8 Z" fill="none" stroke="#98B8C6" stroke-width="0.16" stroke-linecap="round" stroke-linejoin="round" data-line-role="tone_helper" data-brush-size="0.28800000000000003" data-pressure="0.12,0.68,0.16">
        <desc>head/earring_right; tone_helper; Bright cool left crystal facet; crisp planar outline but soft internal white light. Final color and reflection replace this guide line. Pressure start/middle/end (0.12, 0.68, 0.16); thin rounded taper, crisp center and soft optical endpoints. Clipped to the complete part surface; open lines are visible accents, closed contours delimit continuous fill.</desc>
      </path>
    </g>
  </g>
</svg>