<?xml version='1.0' encoding='UTF-8'?>
<svg xmlns="http://www.w3.org/2000/svg" viewBox="394 185 45 28" width="1080" height="672"><defs><linearGradient id="face_contour_color" gradientUnits="userSpaceOnUse" x1="398.5" y1="0" x2="489" y2="0"><stop offset="0" stop-color="#8C7379"/><stop offset="0.15" stop-color="#694E57"/><stop offset="0.35" stop-color="#8F747A"/><stop offset="0.51" stop-color="#BD9C9E"/><stop offset="0.65" stop-color="#93777E"/><stop offset="0.86" stop-color="#503E4E"/><stop offset="1" stop-color="#8B717B"/></linearGradient><radialGradient id="face_clean_skin_base" gradientUnits="userSpaceOnUse" cx="0" cy="0" r="1" gradientTransform="translate(444 211) scale(61 54)"><stop offset="0" stop-color="#FCEDEB"/><stop offset="0.22" stop-color="#FCEEEC"/><stop offset="0.5" stop-color="#FDF2EF"/><stop offset="0.65" stop-color="#FDF5F3"/><stop offset="0.95" stop-color="#FDF4F3"/><stop offset="1" stop-color="#FDF4F3"/></radialGradient><clipPath id="face_clean_skin_clip" clipPathUnits="userSpaceOnUse"><path d="M 393,133 C 405,109 429,101 444,103 C 466,101 488,115 495,136 C 503,157 502,184 498,204 C 495,210 491,214 489,216.7 C 486.9,227.6 483.4,238.2 475.8,247.2 C 469.2,255 460,262 452.6,267.1 C 450.2,268.7 448.2,269.6 445.6,269.6 C 443,269.7 441.3,269.4 438.1,267.8 C 424.5,261 416.88,253.44 411,245.8 C 403.05,235.47 400.82,225.13 398.5,214.8 C 396,209 392,207 391,204 C 387,181 385,154 393,133 Z"/></clipPath><radialGradient id="forehead_neutral_skin_gradient" gradientUnits="userSpaceOnUse" cx="0" cy="0" r="1" gradientTransform="translate(462 167) scale(28 27)"><stop offset="0" stop-color="#FEFAF8" stop-opacity="0.68"/><stop offset="0.4" stop-color="#FEFAF8" stop-opacity="0.42"/><stop offset="0.75" stop-color="#FEFAF8" stop-opacity="0.1"/><stop offset="1" stop-color="#FEFAF8" stop-opacity="0"/></radialGradient><radialGradient id="left_lower_warm_skin_gradient" gradientUnits="userSpaceOnUse" cx="0" cy="0" r="1" gradientTransform="translate(425 237) scale(12 15)"><stop offset="0" stop-color="#F9DAD7" stop-opacity="0.15"/><stop offset="0.35" stop-color="#F9DAD7" stop-opacity="0.1"/><stop offset="0.7" stop-color="#F9DAD7" stop-opacity="0.02"/><stop offset="1" stop-color="#F9DAD7" stop-opacity="0"/></radialGradient><radialGradient id="right_lower_cool_skin_gradient" gradientUnits="userSpaceOnUse" cx="0" cy="0" r="1" gradientTransform="translate(472 235) scale(9 13)"><stop offset="0" stop-color="#E6E7EC" stop-opacity="0.075"/><stop offset="0.5" stop-color="#E6E7EC" stop-opacity="0.035"/><stop offset="1" stop-color="#E6E7EC" stop-opacity="0"/></radialGradient><filter id="face5_brow_edge" x="-30%" y="-150%" width="160%" height="400%" color-interpolation-filters="sRGB"><feGaussianBlur stdDeviation="0.4"/></filter><linearGradient id="face5_brow_right_color" gradientUnits="userSpaceOnUse" x1="403" y1="184" x2="434" y2="184"><stop offset="0" stop-color="#B3A0AD" stop-opacity="1"/><stop offset="0.25" stop-color="#A18E9F" stop-opacity="1"/><stop offset="0.6" stop-color="#ADA4B7" stop-opacity="1"/><stop offset="1" stop-color="#C3ADB5" stop-opacity="0.75"/></linearGradient><linearGradient id="face5_brow_left_color" gradientUnits="userSpaceOnUse" x1="454" y1="184" x2="486" y2="184"><stop offset="0" stop-color="#C3ADB6" stop-opacity="0.75"/><stop offset="0.4" stop-color="#B0A4B2" stop-opacity="1"/><stop offset="0.8" stop-color="#9AA0B1" stop-opacity="1"/><stop offset="1" stop-color="#A099AE" stop-opacity="1"/></linearGradient><radialGradient id="face5_blush_right_diffusion"><stop offset="0" stop-color="#F3ACA9" stop-opacity="0.34"/><stop offset="0.3" stop-color="#F3ACA9" stop-opacity="0.23"/><stop offset="0.55" stop-color="#F3ACA9" stop-opacity="0.105"/><stop offset="0.8" stop-color="#F3ACA9" stop-opacity="0.025"/><stop offset="1" stop-color="#F3ACA9" stop-opacity="0"/></radialGradient><radialGradient id="face5_blush_left_diffusion"><stop offset="0" stop-color="#F5B8B2" stop-opacity="0.3"/><stop offset="0.3" stop-color="#F5B8B2" stop-opacity="0.235"/><stop offset="0.55" stop-color="#F5B8B2" stop-opacity="0.13"/><stop offset="0.82" stop-color="#F5B8B2" stop-opacity="0.025"/><stop offset="1" stop-color="#F5B8B2" stop-opacity="0"/></radialGradient><radialGradient id="face5_nose_warmth"><stop offset="0" stop-color="#E9B5B5" stop-opacity="0.36"/><stop offset="0.35" stop-color="#E9B5B5" stop-opacity="0.28"/><stop offset="0.75" stop-color="#E9B5B5" stop-opacity="0.085"/><stop offset="1" stop-color="#E9B5B5" stop-opacity="0"/></radialGradient><radialGradient id="face5_nose_mark_color"><stop offset="0" stop-color="#946F72" stop-opacity="1"/><stop offset="0.35" stop-color="#946F72" stop-opacity="0.98"/><stop offset="0.7" stop-color="#A17B7D" stop-opacity="0.4"/><stop offset="1" stop-color="#B98D8D" stop-opacity="0"/></radialGradient><clipPath id="face5_ear_right_clip"><path d="M 395,209 C 390,204 385,209 387,215 C 388,220 392.5,224.5 397.1,223.8 C 399.2,224.1 403,223.6 404.5,221 C 405.3,217 404.5,212.5 402.5,210 C 399.7,208.6 397.3,208.2 395,209 Z"/></clipPath><linearGradient id="face5_ear_right_skin" gradientUnits="userSpaceOnUse" x1="0" y1="207" x2="0" y2="224"><stop offset="0" stop-color="#AE8B96" stop-opacity="1"/><stop offset="0.4" stop-color="#D3ABA8" stop-opacity="1"/><stop offset="0.8" stop-color="#E3BEB7" stop-opacity="1"/><stop offset="1" stop-color="#B28B94" stop-opacity="1"/></linearGradient><radialGradient id="face5_ear_right_recess"><stop offset="0" stop-color="#94727F" stop-opacity="0.36"/><stop offset="0.45" stop-color="#94727F" stop-opacity="0.23"/><stop offset="1" stop-color="#94727F" stop-opacity="0"/></radialGradient><linearGradient id="face5_ear_right_line_fade" gradientUnits="userSpaceOnUse" x1="0" y1="207" x2="0" y2="224"><stop offset="0" stop-color="#967783" stop-opacity="0"/><stop offset="0.2" stop-color="#967783" stop-opacity="0.48"/><stop offset="0.65" stop-color="#967783" stop-opacity="0.6"/><stop offset="1" stop-color="#967783" stop-opacity="0.2"/></linearGradient><clipPath id="face5_ear_left_clip"><path d="M 493,209 C 498,204 503,209 501.5,215 C 500.5,220 497,224 492,223.5 C 489.3,224 485,223 483.7,220.5 C 482.9,216.8 484,211.8 486.5,210 C 488.8,208.5 491.5,208.3 493,209 Z"/></clipPath><linearGradient id="face5_ear_left_skin" gradientUnits="userSpaceOnUse" x1="0" y1="207" x2="0" y2="224"><stop offset="0" stop-color="#AE8B96" stop-opacity="1"/><stop offset="0.4" stop-color="#D3ABA8" stop-opacity="1"/><stop offset="0.8" stop-color="#E3BEB7" stop-opacity="1"/><stop offset="1" stop-color="#B28B94" stop-opacity="1"/></linearGradient><radialGradient id="face5_ear_left_recess"><stop offset="0" stop-color="#94727F" stop-opacity="0.36"/><stop offset="0.45" stop-color="#94727F" stop-opacity="0.23"/><stop offset="1" stop-color="#94727F" stop-opacity="0"/></radialGradient><linearGradient id="face5_ear_left_line_fade" gradientUnits="userSpaceOnUse" x1="0" y1="207" x2="0" y2="224"><stop offset="0" stop-color="#967783" stop-opacity="0"/><stop offset="0.2" stop-color="#967783" stop-opacity="0.48"/><stop offset="0.65" stop-color="#967783" stop-opacity="0.6"/><stop offset="1" stop-color="#967783" stop-opacity="0.2"/></linearGradient><filter id="face6_hair_soft" x="-50%" y="-50%" width="200%" height="200%" color-interpolation-filters="sRGB"><feGaussianBlur stdDeviation="1.05"/></filter><filter id="face6_side_soft" x="-50%" y="-50%" width="200%" height="200%" color-interpolation-filters="sRGB"><feGaussianBlur stdDeviation="0.9"/></filter><filter id="face6_ear_soft" x="-50%" y="-50%" width="200%" height="200%" color-interpolation-filters="sRGB"><feGaussianBlur stdDeviation="0.65"/></filter><filter id="face6_jewel_soft" x="-50%" y="-50%" width="200%" height="200%" color-interpolation-filters="sRGB"><feGaussianBlur stdDeviation="0.8"/></filter><filter id="face6_rim_soft" x="-50%" y="-50%" width="200%" height="200%" color-interpolation-filters="sRGB"><feGaussianBlur stdDeviation="0.45"/></filter><clipPath id="face6_surface_face_base" data-target-part="face_base" clipPathUnits="userSpaceOnUse"><path d="M 393,133 C 405,109 429,101 444,103 C 466,101 488,115 495,136 C 503,157 502,184 498,204 C 495,210 491,214 489,216.7 C 486.9,227.6 483.4,238.2 475.8,247.2 C 469.2,255 460,262 452.6,267.1 C 450.2,268.7 448.2,269.6 445.6,269.6 C 443,269.7 441.3,269.4 438.1,267.8 C 424.5,261 416.88,253.44 411,245.8 C 403.05,235.47 400.82,225.13 398.5,214.8 C 396,209 392,207 391,204 C 387,181 385,154 393,133 Z" fill-rule="evenodd" fill="white"/></clipPath><clipPath id="face6_surface_ear_right" data-target-part="ear_right" clipPathUnits="userSpaceOnUse"><path d="M 395,209 C 390,204 385,209 387,215 C 388,220 392.5,224.5 397.1,223.8 C 399.2,224.1 403,223.6 404.5,221 C 405.3,217 404.5,212.5 402.5,210 C 399.7,208.6 397.3,208.2 395,209 Z" fill="white"/></clipPath><clipPath id="face6_surface_ear_left" data-target-part="ear_left" clipPathUnits="userSpaceOnUse"><path d="M 493,209 C 498,204 503,209 501.5,215 C 500.5,220 497,224 492,223.5 C 489.3,224 485,223 483.7,220.5 C 482.9,216.8 484,211.8 486.5,210 C 488.8,208.5 491.5,208.3 493,209 Z" fill="white"/></clipPath><clipPath id="face6_surface_nose" data-target-part="nose" clipPathUnits="userSpaceOnUse"><ellipse cx="443.7" cy="229.5" rx="8.5" ry="9" fill="white"/></clipPath><linearGradient id="face6_front_right_shade" gradientUnits="userSpaceOnUse" x1="0" y1="151" x2="0" y2="211"><stop offset="0" stop-color="#A7737E" stop-opacity="0.43"/><stop offset="0.35" stop-color="#A7737E" stop-opacity="0.46"/><stop offset="0.72" stop-color="#A7737E" stop-opacity="0.34"/><stop offset="1" stop-color="#A7737E" stop-opacity="0.12"/></linearGradient><linearGradient id="face6_front_left_shade" gradientUnits="userSpaceOnUse" x1="0" y1="151" x2="0" y2="211"><stop offset="0" stop-color="#A7737E" stop-opacity="0.43"/><stop offset="0.35" stop-color="#A7737E" stop-opacity="0.46"/><stop offset="0.72" stop-color="#A7737E" stop-opacity="0.34"/><stop offset="1" stop-color="#A7737E" stop-opacity="0.12"/></linearGradient><linearGradient id="face6_side_right_shade" gradientUnits="userSpaceOnUse" x1="0" y1="200" x2="0" y2="240"><stop offset="0" stop-color="#986E79" stop-opacity="0"/><stop offset="0.3" stop-color="#986E79" stop-opacity="0.26"/><stop offset="0.62" stop-color="#986E79" stop-opacity="0.18"/><stop offset="1" stop-color="#986E79" stop-opacity="0"/></linearGradient><linearGradient id="face6_side_left_shade" gradientUnits="userSpaceOnUse" x1="0" y1="200" x2="0" y2="240"><stop offset="0" stop-color="#986E79" stop-opacity="0"/><stop offset="0.3" stop-color="#986E79" stop-opacity="0.26"/><stop offset="0.62" stop-color="#986E79" stop-opacity="0.18"/><stop offset="1" stop-color="#986E79" stop-opacity="0"/></linearGradient><linearGradient id="face6_jewel_shade" gradientUnits="userSpaceOnUse" x1="0" y1="168" x2="0" y2="181"><stop offset="0" stop-color="#956970" stop-opacity="0.08"/><stop offset="0.42" stop-color="#956970" stop-opacity="0.4"/><stop offset="0.65" stop-color="#956970" stop-opacity="0.4"/><stop offset="1" stop-color="#956970" stop-opacity="0"/></linearGradient><linearGradient id="face6_face_edge_light" gradientUnits="userSpaceOnUse" x1="0" y1="216" x2="0" y2="269"><stop offset="0" stop-color="#FFFEF5" stop-opacity="0"/><stop offset="0.25" stop-color="#FFFEF5" stop-opacity="0.72"/><stop offset="0.65" stop-color="#FFFEF5" stop-opacity="0.66"/><stop offset="1" stop-color="#FFFEF5" stop-opacity="0.32"/></linearGradient><linearGradient id="face6_ear_right_shade" gradientUnits="userSpaceOnUse" x1="0" y1="207" x2="0" y2="222"><stop offset="0" stop-color="#805D6B" stop-opacity="0"/><stop offset="0.35" stop-color="#805D6B" stop-opacity="0.2"/><stop offset="0.65" stop-color="#805D6B" stop-opacity="0.23"/><stop offset="1" stop-color="#805D6B" stop-opacity="0"/></linearGradient><linearGradient id="face6_ear_left_shade" gradientUnits="userSpaceOnUse" x1="0" y1="207" x2="0" y2="222"><stop offset="0" stop-color="#805D6B" stop-opacity="0"/><stop offset="0.35" stop-color="#805D6B" stop-opacity="0.2"/><stop offset="0.65" stop-color="#805D6B" stop-opacity="0.23"/><stop offset="1" stop-color="#805D6B" stop-opacity="0"/></linearGradient><radialGradient id="face6_nose_tip_light"><stop offset="0" stop-color="#FFFFF6" stop-opacity="0.85"/><stop offset="0.35" stop-color="#FFFFF6" stop-opacity="0.7"/><stop offset="0.7" stop-color="#FFFFF6" stop-opacity="0.25"/><stop offset="1" stop-color="#FFFFF6" stop-opacity="0"/></radialGradient></defs>
<defs>
    <path id="eye_right_aperture_shape" d="M 406.05,197.15 C 408.45,195.08 413.18,195.10 417.48,195.58 C 423.59,195.89 428.41,198.59 431.48,201.79 C 429.42,201.86 427.61,202.57 425.15,203.25 C 420.93,204.08 416.76,204.13 413.35,203.79 L 412.23,203.50 C 410.08,202.90 408.82,201.40 407.91,200.03 C 407.12,198.85 406.61,197.89 406.05,197.15 Z"/>
    <path id="eye_right_sclera_complete_shape" d="M 405.70,197.20 C 404.91,192.42 410.27,187.49 418.18,188.25 C 425.86,187.68 430.54,193.72 431.61,201.80 C 429.42,201.86 427.61,202.57 425.15,203.25 C 420.93,204.08 416.76,204.13 413.35,203.79 L 412.23,203.50 C 410.08,202.90 408.82,201.40 407.91,200.03 C 407.12,198.85 406.14,198.01 405.70,197.20 Z"/>
    <ellipse id="eye_right_iris_complete_shape" cx="418.18" cy="196.75" rx="7.62" ry="7.18"/>
    <ellipse id="eye_right_pupil_complete_shape" cx="418.35" cy="196.70" rx="2.65" ry="3.22"/>
    <path id="eye_right_highlight_main_shape" d="M 418.18,196.04 C 418.64,195.86 419.24,195.87 419.53,196.20 C 419.85,196.51 419.84,197.13 419.53,197.45 C 419.18,197.77 418.45,197.75 418.04,197.48 C 417.73,197.23 417.72,196.31 418.18,196.04 Z"/>
    <clipPath id="eye_right_aperture_clip" clipPathUnits="userSpaceOnUse"><use href="#eye_right_aperture_shape"/></clipPath>
  <linearGradient id="eye3_right_sclera_color" gradientUnits="userSpaceOnUse" x1="406" y1="199" x2="432" y2="200"><stop offset="0" stop-color="#F6E7EF" stop-opacity="1"/><stop offset=".22" stop-color="#FCF1F7" stop-opacity="1"/><stop offset=".64" stop-color="#F6EDF5" stop-opacity="1"/><stop offset="1" stop-color="#F3E1E7" stop-opacity="1"/></linearGradient><linearGradient id="eye3_right_iris_color" gradientUnits="userSpaceOnUse" x1="418" y1="189.57" x2="418" y2="203.93"><stop offset="0" stop-color="#718FB8" stop-opacity="1"/><stop offset=".24" stop-color="#6B88B2" stop-opacity="1"/><stop offset=".43" stop-color="#7699C3" stop-opacity="1"/><stop offset=".64" stop-color="#88ACD3" stop-opacity="1"/><stop offset=".80" stop-color="#A8C8E9" stop-opacity="1"/><stop offset=".91" stop-color="#BED6F2" stop-opacity="1"/><stop offset="1" stop-color="#9FB2D1" stop-opacity="1"/></linearGradient><linearGradient id="eye3_right_iris_side_depth" gradientUnits="userSpaceOnUse" x1="410.56" y1="0" x2="425.8" y2="0"><stop offset="0" stop-color="#4F6394" stop-opacity=".66"/><stop offset=".12" stop-color="#5773A0" stop-opacity=".38"/><stop offset=".32" stop-color="#6384B3" stop-opacity="0"/><stop offset=".70" stop-color="#6A85B0" stop-opacity="0"/><stop offset=".90" stop-color="#5771A0" stop-opacity=".32"/><stop offset="1" stop-color="#4A608C" stop-opacity=".62"/></linearGradient><linearGradient id="eye3_right_pupil_color" gradientUnits="userSpaceOnUse" x1="418" y1="193.48" x2="418" y2="199.92"><stop offset="0" stop-color="#273B61" stop-opacity="1"/><stop offset=".35" stop-color="#2D456F" stop-opacity="1"/><stop offset=".72" stop-color="#3D5C89" stop-opacity="1"/><stop offset="1" stop-color="#577BAB" stop-opacity="1"/></linearGradient><linearGradient id="eye3_right_upper_liner_color" gradientUnits="userSpaceOnUse" x1="404" y1="196" x2="432" y2="201"><stop offset="0" stop-color="#1A1522" stop-opacity="1"/><stop offset=".25" stop-color="#12101C" stop-opacity="1"/><stop offset=".58" stop-color="#1B1522" stop-opacity="1"/><stop offset=".83" stop-color="#583645" stop-opacity="1"/><stop offset="1" stop-color="#986068" stop-opacity="1"/></linearGradient><linearGradient id="eye3_right_lower_liner_color" gradientUnits="userSpaceOnUse" x1="406" y1="0" x2="432" y2="0"><stop offset="0" stop-color="#895865" stop-opacity="1"/><stop offset=".27" stop-color="#B28791" stop-opacity="1"/><stop offset=".63" stop-color="#C5A3AE" stop-opacity="1"/><stop offset="1" stop-color="#DAB9BA" stop-opacity="1"/></linearGradient><linearGradient id="eye3_right_lower_lash_color" gradientUnits="userSpaceOnUse" x1="406" y1="198" x2="411" y2="203"><stop offset="0" stop-color="#795063" stop-opacity="1"/><stop offset=".6" stop-color="#95616E" stop-opacity="1"/><stop offset="1" stop-color="#B88992" stop-opacity="1"/></linearGradient><clipPath id="eye4_right_sclera_surface_clip" clipPathUnits="userSpaceOnUse"><use href="#eye_right_sclera_complete_shape"/></clipPath><clipPath id="eye4_right_iris_surface_clip" clipPathUnits="userSpaceOnUse"><use href="#eye_right_iris_complete_shape"/></clipPath><filter id="eye4_right_lid_shadow_soft" x="-40%" y="-60%" width="180%" height="220%" color-interpolation-filters="sRGB"><feGaussianBlur stdDeviation="0.47"/></filter><filter id="eye4_right_glint_soft" x="-40%" y="-60%" width="180%" height="220%" color-interpolation-filters="sRGB"><feGaussianBlur stdDeviation="0.16"/></filter><linearGradient id="eye4_right_sclera_cast_color" gradientUnits="userSpaceOnUse" x1="417" y1="192" x2="419" y2="200"><stop offset="0" stop-color="#7E4C68" stop-opacity=".58"/><stop offset=".4" stop-color="#896077" stop-opacity=".47"/><stop offset="1" stop-color="#986E7C" stop-opacity=".23"/></linearGradient><linearGradient id="eye4_right_iris_cast_color" gradientUnits="userSpaceOnUse" x1="417" y1="192" x2="419" y2="200"><stop offset="0" stop-color="#111329" stop-opacity=".90"/><stop offset=".42" stop-color="#152039" stop-opacity=".81"/><stop offset="1" stop-color="#22365B" stop-opacity=".54"/></linearGradient></defs>
  <g clip-path="url(#eye_right_aperture_clip)"><use href="#eye_right_sclera_complete_shape" fill="white"/></g></svg>